<svg xmlns="http://www.w3.org/2000/svg" viewBox="0 0 313.9 61.0" role="img" aria-label="ascom">
<path fill="#FFFFFF" stroke="#FFFFFF" stroke-width="2.2" stroke-linejoin="round" fill-rule="nonzero" d="M19.35 57.94 Q11.69 57.94 7.40 53.77 Q3.10 49.58 3.10 42.02 Q3.10 33.82 8.44 29.52 Q13.79 25.23 23.94 25.12 L35.32 24.93 L35.32 22.24 Q35.32 17.07 33.51 14.55 Q31.71 12.04 27.60 12.04 Q23.80 12.04 22.01 13.77 Q20.23 15.51 19.79 19.51 L5.49 18.82 Q6.80 11.12 12.54 7.13 Q18.27 3.15 28.19 3.15 Q38.19 3.15 43.62 8.08 Q49.04 13.01 49.04 22.10 L49.04 41.33 Q49.04 45.77 50.04 47.46 Q51.04 49.15 53.38 49.15 Q54.94 49.15 56.41 48.85 L56.41 56.27 Q55.19 56.57 54.21 56.82 Q53.24 57.05 52.26 57.19 Q51.29 57.35 50.18 57.44 Q49.08 57.55 47.63 57.55 Q42.44 57.55 39.98 55.01 Q37.52 52.46 37.02 47.54 L36.74 47.54 Q30.98 57.94 19.35 57.94 Z M35.32 32.49 L28.29 32.60 Q23.51 32.79 21.51 33.65 Q19.51 34.49 18.44 36.26 Q17.40 38.01 17.40 40.94 Q17.40 44.71 19.13 46.54 Q20.87 48.37 23.74 48.37 Q26.98 48.37 29.63 46.62 Q32.29 44.85 33.80 41.76 Q35.32 38.65 35.32 35.18 L35.32 32.49 Z M107.29 41.52 Q107.29 49.19 101.01 53.57 Q94.75 57.94 83.65 57.94 Q72.78 57.94 66.98 54.51 Q61.20 51.05 59.29 43.77 L71.36 41.98 Q72.39 45.73 74.89 47.29 Q77.40 48.85 83.65 48.85 Q89.42 48.85 92.06 47.40 Q94.70 45.93 94.70 42.80 Q94.70 40.26 92.57 38.77 Q90.45 37.29 85.37 36.26 Q73.75 33.96 69.68 31.99 Q65.64 30.01 63.51 26.87 Q61.39 23.71 61.39 19.12 Q61.39 11.55 67.22 7.33 Q73.06 3.10 83.76 3.10 Q93.18 3.10 98.92 6.77 Q104.65 10.43 106.07 17.37 L93.92 18.63 Q93.32 15.41 91.03 13.82 Q88.73 12.23 83.76 12.23 Q78.87 12.23 76.43 13.48 Q74.00 14.73 74.00 17.65 Q74.00 19.94 75.87 21.29 Q77.75 22.63 82.20 23.51 Q88.40 24.79 93.20 26.13 Q98.01 27.46 100.92 29.32 Q103.82 31.18 105.56 34.08 Q107.29 36.99 107.29 41.52 Z M140.39 57.94 Q128.39 57.94 121.85 50.79 Q115.30 43.63 115.30 30.83 Q115.30 17.76 121.89 10.46 Q128.49 3.15 140.60 3.15 Q149.92 3.15 156.02 7.83 Q162.13 12.52 163.69 20.77 L149.88 21.46 Q149.28 17.41 146.94 14.99 Q144.60 12.57 140.30 12.57 Q129.71 12.57 129.71 30.30 Q129.71 48.55 140.50 48.55 Q144.41 48.55 147.03 46.10 Q149.67 43.63 150.31 38.74 L164.08 39.38 Q163.35 44.80 160.19 49.05 Q157.05 53.30 151.92 55.63 Q146.80 57.94 140.39 57.94 Z M224.18 30.49 Q224.18 43.33 217.06 50.65 Q209.93 57.94 197.34 57.94 Q184.98 57.94 177.95 50.62 Q170.91 43.29 170.91 30.49 Q170.91 17.76 177.95 10.46 Q184.98 3.15 197.62 3.15 Q210.57 3.15 217.37 10.21 Q224.18 17.26 224.18 30.49 Z M209.84 30.49 Q209.84 21.07 206.76 16.82 Q203.68 12.57 197.82 12.57 Q185.32 12.57 185.32 30.49 Q185.32 39.33 188.37 43.94 Q191.43 48.55 197.18 48.55 Q209.84 48.55 209.84 30.49 Z M266.19 56.96 L266.19 27.32 Q266.19 13.40 258.17 13.40 Q254.01 13.40 251.40 17.65 Q248.80 21.90 248.80 28.63 L248.80 56.96 L235.08 56.96 L235.08 15.94 Q235.08 11.69 234.95 8.99 Q234.83 6.27 234.69 4.13 L247.76 4.13 Q247.92 5.05 248.15 9.08 Q248.40 13.12 248.40 14.63 L248.61 14.63 Q251.14 8.57 254.92 5.83 Q258.70 3.10 263.98 3.10 Q276.09 3.10 278.69 14.63 L278.97 14.63 Q281.65 8.48 285.40 5.79 Q289.17 3.10 294.98 3.10 Q302.70 3.10 306.75 8.35 Q310.81 13.60 310.81 23.41 L310.81 56.96 L297.19 56.96 L297.19 27.32 Q297.19 13.40 289.17 13.40 Q285.17 13.40 282.61 17.29 Q280.05 21.16 279.80 28.01 L279.80 56.96 L266.19 56.96 Z"/>
</svg>