<svg xmlns="http://www.w3.org/2000/svg" viewBox="0 0 128 128">
<rect width="128" height="128" rx="24" fill="#DA291C"/>
<path fill="#FFFFFF" stroke="#FFFFFF" stroke-width="2.5" stroke-linejoin="round" d="M54.01 90.30 Q46.66 90.30 42.53 86.30 Q38.41 82.28 38.41 75.02 Q38.41 67.14 43.54 63.02 Q48.67 58.89 58.42 58.79 L69.34 58.61 L69.34 56.03 Q69.34 51.06 67.60 48.65 Q65.88 46.23 61.93 46.23 Q58.28 46.23 56.56 47.90 Q54.85 49.56 54.43 53.40 L40.70 52.74 Q41.96 45.35 47.47 41.52 Q52.97 37.70 62.50 37.70 Q72.10 37.70 77.30 42.44 Q82.51 47.16 82.51 55.89 L82.51 74.36 Q82.51 78.62 83.47 80.24 Q84.43 81.86 86.68 81.86 Q88.18 81.86 89.59 81.57 L89.59 88.70 Q88.42 88.98 87.47 89.22 Q86.54 89.45 85.60 89.58 Q84.67 89.73 83.60 89.82 Q82.55 89.93 81.16 89.93 Q76.18 89.93 73.81 87.48 Q71.45 85.04 70.97 80.31 L70.70 80.31 Q65.17 90.30 54.01 90.30 Z M69.34 65.87 L62.59 65.97 Q58.00 66.15 56.08 66.98 Q54.16 67.79 53.14 69.48 Q52.13 71.16 52.13 73.98 Q52.13 77.60 53.80 79.35 Q55.46 81.11 58.22 81.11 Q61.33 81.11 63.88 79.43 Q66.43 77.73 67.88 74.76 Q69.34 71.78 69.34 68.45 L69.34 65.87 Z"/>
</svg>